name ./resultDataOpenSim/trcMotMarkerGrf/sub06/grf-12-05.mot
datacolumns 19
datarows 15
range 0.51600000 0.57200000
endheader

                time	     ground_force_vx	     ground_force_vy	     ground_force_vz	     ground_force_px	     ground_force_py	     ground_force_pz	   l_ground_force_vx	   l_ground_force_vy	   l_ground_force_vz	   l_ground_force_px	   l_ground_force_py	   l_ground_force_pz	     ground_torque_x	     ground_torque_y	     ground_torque_z	   l_ground_torque_x	   l_ground_torque_y	   l_ground_torque_z	
          0.51600000	         41.90760484	        400.84114331	        -15.43939549	         -0.75281101	          0.00000000	          0.06977706	          0.00000000	          0.00000000	          0.00000000	          0.00000000	          0.00000000	          0.00000000	          0.00000000	          1.70804625	          0.00000000	          0.00000000	          0.00000000	          0.00000000	
          0.52000000	         43.80255119	        414.42165006	        -15.64783207	         -0.75245144	          0.00000000	          0.06929204	          0.00000000	          0.00000000	          0.00000000	          0.00000000	          0.00000000	          0.00000000	          0.00000000	          1.87586625	          0.00000000	          0.00000000	          0.00000000	          0.00000000	
          0.52400000	         45.62664180	        428.83928004	        -16.45823615	         -0.75202028	          0.00000000	          0.06883403	          0.00000000	          0.00000000	          0.00000000	          0.00000000	          0.00000000	          0.00000000	          0.00000000	          1.98907172	          0.00000000	          0.00000000	          0.00000000	          0.00000000	
          0.52800000	         47.68156089	        444.01939920	        -17.78163322	         -0.75154541	          0.00000000	          0.06840880	          0.00000000	          0.00000000	          0.00000000	          0.00000000	          0.00000000	          0.00000000	          0.00000000	          2.04621346	          0.00000000	          0.00000000	          0.00000000	          0.00000000	
          0.53200000	         50.24799881	        459.91686220	        -19.45080755	         -0.75105760	          0.00000000	          0.06801604	          0.00000000	          0.00000000	          0.00000000	          0.00000000	          0.00000000	          0.00000000	          0.00000000	          2.05503078	          0.00000000	          0.00000000	          0.00000000	          0.00000000	
          0.53600000	         53.51224242	        476.51454979	        -21.25124107	         -0.75058101	          0.00000000	          0.06765283	          0.00000000	          0.00000000	          0.00000000	          0.00000000	          0.00000000	          0.00000000	          0.00000000	          2.03108982	          0.00000000	          0.00000000	          0.00000000	          0.00000000	
          0.54000000	         57.52266722	        493.78927212	        -22.96167645	         -0.75012885	          0.00000000	          0.06731148	          0.00000000	          0.00000000	          0.00000000	          0.00000000	          0.00000000	          0.00000000	          0.00000000	          1.99468011	          0.00000000	          0.00000000	          0.00000000	          0.00000000	
          0.54400000	         62.19145105	        511.68042177	        -24.40014589	         -0.74969675	          0.00000000	          0.06698174	          0.00000000	          0.00000000	          0.00000000	          0.00000000	          0.00000000	          0.00000000	          0.00000000	          1.96662945	          0.00000000	          0.00000000	          0.00000000	          0.00000000	
          0.54800000	         67.33953433	        530.08534322	        -25.46368056	         -0.74926350	          0.00000000	          0.06665439	          0.00000000	          0.00000000	          0.00000000	          0.00000000	          0.00000000	          0.00000000	          0.00000000	          1.96401488	          0.00000000	          0.00000000	          0.00000000	          0.00000000	
          0.55200000	         72.75822934	        548.88280507	        -26.14459967	         -0.74880815	          0.00000000	          0.06632075	          0.00000000	          0.00000000	          0.00000000	          0.00000000	          0.00000000	          0.00000000	          0.00000000	          1.99675297	          0.00000000	          0.00000000	          0.00000000	          0.00000000	
          0.55600000	         78.25922158	        567.96831600	        -26.51527372	         -0.74833661	          0.00000000	          0.06596699	          0.00000000	          0.00000000	          0.00000000	          0.00000000	          0.00000000	          0.00000000	          0.00000000	          2.06576774	          0.00000000	          0.00000000	          0.00000000	          0.00000000	
          0.56000000	         83.71762873	        587.24266566	        -26.69289515	         -0.74789344	          0.00000000	          0.06557799	          0.00000000	          0.00000000	          0.00000000	          0.00000000	          0.00000000	          0.00000000	          0.00000000	          2.16303432	          0.00000000	          0.00000000	          0.00000000	          0.00000000	
          0.56400000	         89.11302306	        606.51448751	        -26.80936678	         -0.74752292	          0.00000000	          0.06515766	          0.00000000	          0.00000000	          0.00000000	          0.00000000	          0.00000000	          0.00000000	          0.00000000	          2.27347358	          0.00000000	          0.00000000	          0.00000000	          0.00000000	
          0.56800000	         94.53094176	        625.43126431	        -26.99937743	         -0.74720039	          0.00000000	          0.06474113	          0.00000000	          0.00000000	          0.00000000	          0.00000000	          0.00000000	          0.00000000	          0.00000000	          2.37842287	          0.00000000	          0.00000000	          0.00000000	          0.00000000	
          0.57200000	        100.11458919	        643.60099394	        -27.38592034	         -0.74683327	          0.00000000	          0.06437254	          0.00000000	          0.00000000	          0.00000000	          0.00000000	          0.00000000	          0.00000000	          0.00000000	          2.46006219	          0.00000000	          0.00000000	          0.00000000	          0.00000000	
